<mxfile host="app.diagrams.net" modified="2022-11-14T12:22:20.975Z" agent="5.0 (Windows NT 10.0; Win64; x64) AppleWebKit/537.36 (KHTML, like Gecko) Chrome/107.0.0.0 Safari/537.36" etag="uvyKwDD12qXSMgPEwGW0" version="20.5.3" type="github" pages="3">
  <diagram name="client server architecture" id="822b0af5-4adb-64df-f703-e8dfc1f81529">
    <mxGraphModel dx="1730" dy="48" grid="1" gridSize="10" guides="1" tooltips="1" connect="1" arrows="1" fold="1" page="1" pageScale="1" pageWidth="1100" pageHeight="850" background="none" math="0" shadow="0">
      <root>
        <mxCell id="0" />
        <mxCell id="1" parent="0" />
        <mxCell id="AwcQBpQKS7GPVbEw_jSh-1" value="" style="image;html=1;image=img/lib/clip_art/computers/Server_Tower_128x128.png" vertex="1" parent="1">
          <mxGeometry x="1059" y="1022" width="80" height="80" as="geometry" />
        </mxCell>
        <mxCell id="AwcQBpQKS7GPVbEw_jSh-5" value="" style="image;html=1;image=img/lib/clip_art/computers/Laptop_128x128.png" vertex="1" parent="1">
          <mxGeometry x="574.5" y="1416" width="80" height="80" as="geometry" />
        </mxCell>
        <mxCell id="AwcQBpQKS7GPVbEw_jSh-9" value="&lt;font style=&quot;font-size: 24px;&quot;&gt;File&lt;br&gt;server&lt;/font&gt;" style="text;html=1;strokeColor=none;fillColor=none;align=center;verticalAlign=middle;whiteSpace=wrap;rounded=0;" vertex="1" parent="1">
          <mxGeometry x="1059" y="860" width="90" height="65" as="geometry" />
        </mxCell>
        <mxCell id="AwcQBpQKS7GPVbEw_jSh-13" value="" style="endArrow=classic;html=1;rounded=0;fontSize=24;" edge="1" parent="1">
          <mxGeometry width="50" height="50" relative="1" as="geometry">
            <mxPoint x="609" y="1412" as="sourcePoint" />
            <mxPoint x="1049" y="1092" as="targetPoint" />
          </mxGeometry>
        </mxCell>
        <mxCell id="AwcQBpQKS7GPVbEw_jSh-14" value="Source IP, port: B, 9157&lt;br&gt;Dest IP, port: A, 1397" style="text;html=1;strokeColor=none;fillColor=none;align=center;verticalAlign=middle;whiteSpace=wrap;rounded=0;fontSize=24;rotation=-35;" vertex="1" parent="1">
          <mxGeometry x="654.5" y="1182" width="294.5" height="60" as="geometry" />
        </mxCell>
        <mxCell id="AwcQBpQKS7GPVbEw_jSh-15" value="Host: IP&lt;br&gt;address B" style="text;html=1;strokeColor=none;fillColor=none;align=center;verticalAlign=middle;whiteSpace=wrap;rounded=0;fontSize=24;" vertex="1" parent="1">
          <mxGeometry x="549" y="1496" width="140" height="60" as="geometry" />
        </mxCell>
        <mxCell id="AwcQBpQKS7GPVbEw_jSh-18" value="&lt;span style=&quot;color: rgb(0, 0, 0); font-family: Helvetica; font-size: 24px; font-style: normal; font-variant-ligatures: normal; font-variant-caps: normal; font-weight: 400; letter-spacing: normal; orphans: 2; text-align: center; text-indent: 0px; text-transform: none; widows: 2; word-spacing: 0px; -webkit-text-stroke-width: 0px; background-color: rgb(248, 249, 250); text-decoration-thickness: initial; text-decoration-style: initial; text-decoration-color: initial; float: none; display: inline !important;&quot;&gt;Host: IP&lt;/span&gt;&lt;br style=&quot;color: rgb(0, 0, 0); font-family: Helvetica; font-size: 24px; font-style: normal; font-variant-ligatures: normal; font-variant-caps: normal; font-weight: 400; letter-spacing: normal; orphans: 2; text-align: center; text-indent: 0px; text-transform: none; widows: 2; word-spacing: 0px; -webkit-text-stroke-width: 0px; background-color: rgb(248, 249, 250); text-decoration-thickness: initial; text-decoration-style: initial; text-decoration-color: initial;&quot;&gt;&lt;span style=&quot;color: rgb(0, 0, 0); font-family: Helvetica; font-size: 24px; font-style: normal; font-variant-ligatures: normal; font-variant-caps: normal; font-weight: 400; letter-spacing: normal; orphans: 2; text-align: center; text-indent: 0px; text-transform: none; widows: 2; word-spacing: 0px; -webkit-text-stroke-width: 0px; background-color: rgb(248, 249, 250); text-decoration-thickness: initial; text-decoration-style: initial; text-decoration-color: initial; float: none; display: inline !important;&quot;&gt;address A&lt;/span&gt;" style="text;whiteSpace=wrap;html=1;fontSize=24;" vertex="1" parent="1">
          <mxGeometry x="1049" y="932" width="140" height="80" as="geometry" />
        </mxCell>
        <mxCell id="AwcQBpQKS7GPVbEw_jSh-20" value="Clients" style="text;html=1;strokeColor=none;fillColor=none;align=center;verticalAlign=middle;whiteSpace=wrap;rounded=0;fontSize=24;" vertex="1" parent="1">
          <mxGeometry x="1062" y="1640" width="80" height="50" as="geometry" />
        </mxCell>
        <mxCell id="AwcQBpQKS7GPVbEw_jSh-22" value="" style="endArrow=classic;html=1;rounded=0;fontSize=24;entryX=0.75;entryY=0;entryDx=0;entryDy=0;" edge="1" parent="1" target="AwcQBpQKS7GPVbEw_jSh-5">
          <mxGeometry width="50" height="50" relative="1" as="geometry">
            <mxPoint x="1049" y="1112" as="sourcePoint" />
            <mxPoint x="659" y="1422" as="targetPoint" />
          </mxGeometry>
        </mxCell>
        <mxCell id="AwcQBpQKS7GPVbEw_jSh-23" value="&lt;span style=&quot;color: rgb(0, 0, 0); font-family: Helvetica; font-size: 24px; font-style: normal; font-variant-ligatures: normal; font-variant-caps: normal; font-weight: 400; letter-spacing: normal; orphans: 2; text-align: center; text-indent: 0px; text-transform: none; widows: 2; word-spacing: 0px; -webkit-text-stroke-width: 0px; background-color: rgb(248, 249, 250); text-decoration-thickness: initial; text-decoration-style: initial; text-decoration-color: initial; float: none; display: inline !important;&quot;&gt;Source IP, port: A, 1397&lt;/span&gt;&lt;br style=&quot;color: rgb(0, 0, 0); font-family: Helvetica; font-size: 24px; font-style: normal; font-variant-ligatures: normal; font-variant-caps: normal; font-weight: 400; letter-spacing: normal; orphans: 2; text-align: center; text-indent: 0px; text-transform: none; widows: 2; word-spacing: 0px; -webkit-text-stroke-width: 0px; background-color: rgb(248, 249, 250); text-decoration-thickness: initial; text-decoration-style: initial; text-decoration-color: initial;&quot;&gt;&lt;span style=&quot;color: rgb(0, 0, 0); font-family: Helvetica; font-size: 24px; font-style: normal; font-variant-ligatures: normal; font-variant-caps: normal; font-weight: 400; letter-spacing: normal; orphans: 2; text-align: center; text-indent: 0px; text-transform: none; widows: 2; word-spacing: 0px; -webkit-text-stroke-width: 0px; background-color: rgb(248, 249, 250); text-decoration-thickness: initial; text-decoration-style: initial; text-decoration-color: initial; float: none; display: inline !important;&quot;&gt;&amp;nbsp; Dest IP, port: B, 9157&lt;/span&gt;" style="text;whiteSpace=wrap;html=1;fontSize=24;rotation=-35;" vertex="1" parent="1">
          <mxGeometry x="729" y="1252" width="290" height="80" as="geometry" />
        </mxCell>
        <mxCell id="AwcQBpQKS7GPVbEw_jSh-25" value="" style="shape=image;html=1;verticalAlign=top;verticalLabelPosition=bottom;labelBackgroundColor=#ffffff;imageAspect=0;aspect=fixed;image=https://cdn0.iconfinder.com/data/icons/devices-42/512/android_phone-128.png" vertex="1" parent="1">
          <mxGeometry x="1550" y="1363" width="109" height="109" as="geometry" />
        </mxCell>
        <mxCell id="AwcQBpQKS7GPVbEw_jSh-27" value="&lt;span style=&quot;color: rgb(0, 0, 0); font-family: Helvetica; font-size: 24px; font-style: normal; font-variant-ligatures: normal; font-variant-caps: normal; font-weight: 400; letter-spacing: normal; orphans: 2; text-align: center; text-indent: 0px; text-transform: none; widows: 2; word-spacing: 0px; -webkit-text-stroke-width: 0px; background-color: rgb(248, 249, 250); text-decoration-thickness: initial; text-decoration-style: initial; text-decoration-color: initial; float: none; display: inline !important;&quot;&gt;Host: IP&lt;/span&gt;&lt;br style=&quot;color: rgb(0, 0, 0); font-family: Helvetica; font-size: 24px; font-style: normal; font-variant-ligatures: normal; font-variant-caps: normal; font-weight: 400; letter-spacing: normal; orphans: 2; text-align: center; text-indent: 0px; text-transform: none; widows: 2; word-spacing: 0px; -webkit-text-stroke-width: 0px; background-color: rgb(248, 249, 250); text-decoration-thickness: initial; text-decoration-style: initial; text-decoration-color: initial;&quot;&gt;&lt;span style=&quot;color: rgb(0, 0, 0); font-family: Helvetica; font-size: 24px; font-style: normal; font-variant-ligatures: normal; font-variant-caps: normal; font-weight: 400; letter-spacing: normal; orphans: 2; text-align: center; text-indent: 0px; text-transform: none; widows: 2; word-spacing: 0px; -webkit-text-stroke-width: 0px; background-color: rgb(248, 249, 250); text-decoration-thickness: initial; text-decoration-style: initial; text-decoration-color: initial; float: none; display: inline !important;&quot;&gt;address D&lt;/span&gt;" style="text;whiteSpace=wrap;html=1;fontSize=24;" vertex="1" parent="1">
          <mxGeometry x="1549" y="1472" width="140" height="80" as="geometry" />
        </mxCell>
        <mxCell id="AwcQBpQKS7GPVbEw_jSh-31" value="" style="endArrow=classic;html=1;rounded=0;fontSize=24;" edge="1" parent="1">
          <mxGeometry width="50" height="50" relative="1" as="geometry">
            <mxPoint x="1091" y="1492" as="sourcePoint" />
            <mxPoint x="1091" y="1112" as="targetPoint" />
          </mxGeometry>
        </mxCell>
        <mxCell id="AwcQBpQKS7GPVbEw_jSh-32" value="" style="endArrow=classic;html=1;rounded=0;fontSize=24;" edge="1" parent="1">
          <mxGeometry width="50" height="50" relative="1" as="geometry">
            <mxPoint x="1110.17" y="1122" as="sourcePoint" />
            <mxPoint x="1110" y="1492" as="targetPoint" />
          </mxGeometry>
        </mxCell>
        <mxCell id="AwcQBpQKS7GPVbEw_jSh-33" value="&lt;span style=&quot;color: rgb(0, 0, 0); font-family: Helvetica; font-size: 24px; font-style: normal; font-variant-ligatures: normal; font-variant-caps: normal; font-weight: 400; letter-spacing: normal; orphans: 2; text-align: center; text-indent: 0px; text-transform: none; widows: 2; word-spacing: 0px; -webkit-text-stroke-width: 0px; background-color: rgb(248, 249, 250); text-decoration-thickness: initial; text-decoration-style: initial; text-decoration-color: initial; float: none; display: inline !important;&quot;&gt;Source IP, port: C, 5757&lt;/span&gt;&lt;br style=&quot;color: rgb(0, 0, 0); font-family: Helvetica; font-size: 24px; font-style: normal; font-variant-ligatures: normal; font-variant-caps: normal; font-weight: 400; letter-spacing: normal; orphans: 2; text-align: center; text-indent: 0px; text-transform: none; widows: 2; word-spacing: 0px; -webkit-text-stroke-width: 0px; background-color: rgb(248, 249, 250); text-decoration-thickness: initial; text-decoration-style: initial; text-decoration-color: initial;&quot;&gt;&lt;span style=&quot;color: rgb(0, 0, 0); font-family: Helvetica; font-size: 24px; font-style: normal; font-variant-ligatures: normal; font-variant-caps: normal; font-weight: 400; letter-spacing: normal; orphans: 2; text-align: center; text-indent: 0px; text-transform: none; widows: 2; word-spacing: 0px; -webkit-text-stroke-width: 0px; background-color: rgb(248, 249, 250); text-decoration-thickness: initial; text-decoration-style: initial; text-decoration-color: initial; float: none; display: inline !important;&quot;&gt;Dest IP, port: A, 1397&lt;/span&gt;" style="text;whiteSpace=wrap;html=1;fontSize=24;" vertex="1" parent="1">
          <mxGeometry x="829" y="1392" width="290" height="80" as="geometry" />
        </mxCell>
        <mxCell id="AwcQBpQKS7GPVbEw_jSh-34" value="" style="image;html=1;image=img/lib/clip_art/computers/Monitor_Tower_128x128.png" vertex="1" parent="1">
          <mxGeometry x="1061" y="1502" width="80" height="80" as="geometry" />
        </mxCell>
        <mxCell id="AwcQBpQKS7GPVbEw_jSh-35" value="&lt;span style=&quot;color: rgb(0, 0, 0); font-family: Helvetica; font-size: 24px; font-style: normal; font-variant-ligatures: normal; font-variant-caps: normal; font-weight: 400; letter-spacing: normal; orphans: 2; text-align: center; text-indent: 0px; text-transform: none; widows: 2; word-spacing: 0px; -webkit-text-stroke-width: 0px; background-color: rgb(248, 249, 250); text-decoration-thickness: initial; text-decoration-style: initial; text-decoration-color: initial; float: none; display: inline !important;&quot;&gt;Host: IP&lt;/span&gt;&lt;br style=&quot;color: rgb(0, 0, 0); font-family: Helvetica; font-size: 24px; font-style: normal; font-variant-ligatures: normal; font-variant-caps: normal; font-weight: 400; letter-spacing: normal; orphans: 2; text-align: center; text-indent: 0px; text-transform: none; widows: 2; word-spacing: 0px; -webkit-text-stroke-width: 0px; background-color: rgb(248, 249, 250); text-decoration-thickness: initial; text-decoration-style: initial; text-decoration-color: initial;&quot;&gt;&lt;span style=&quot;color: rgb(0, 0, 0); font-family: Helvetica; font-size: 24px; font-style: normal; font-variant-ligatures: normal; font-variant-caps: normal; font-weight: 400; letter-spacing: normal; orphans: 2; text-align: center; text-indent: 0px; text-transform: none; widows: 2; word-spacing: 0px; -webkit-text-stroke-width: 0px; background-color: rgb(248, 249, 250); text-decoration-thickness: initial; text-decoration-style: initial; text-decoration-color: initial; float: none; display: inline !important;&quot;&gt;address C&lt;/span&gt;" style="text;whiteSpace=wrap;html=1;fontSize=24;" vertex="1" parent="1">
          <mxGeometry x="1059" y="1570" width="140" height="80" as="geometry" />
        </mxCell>
        <mxCell id="AwcQBpQKS7GPVbEw_jSh-36" value="&lt;span style=&quot;color: rgb(0, 0, 0); font-family: Helvetica; font-size: 24px; font-style: normal; font-variant-ligatures: normal; font-variant-caps: normal; font-weight: 400; letter-spacing: normal; orphans: 2; text-align: center; text-indent: 0px; text-transform: none; widows: 2; word-spacing: 0px; -webkit-text-stroke-width: 0px; background-color: rgb(248, 249, 250); text-decoration-thickness: initial; text-decoration-style: initial; text-decoration-color: initial; float: none; display: inline !important;&quot;&gt;Source IP, port: A, 1397&lt;/span&gt;&lt;br style=&quot;color: rgb(0, 0, 0); font-family: Helvetica; font-size: 24px; font-style: normal; font-variant-ligatures: normal; font-variant-caps: normal; font-weight: 400; letter-spacing: normal; orphans: 2; text-align: center; text-indent: 0px; text-transform: none; widows: 2; word-spacing: 0px; -webkit-text-stroke-width: 0px; background-color: rgb(248, 249, 250); text-decoration-thickness: initial; text-decoration-style: initial; text-decoration-color: initial;&quot;&gt;&lt;span style=&quot;color: rgb(0, 0, 0); font-family: Helvetica; font-size: 24px; font-style: normal; font-variant-ligatures: normal; font-variant-caps: normal; font-weight: 400; letter-spacing: normal; orphans: 2; text-align: center; text-indent: 0px; text-transform: none; widows: 2; word-spacing: 0px; -webkit-text-stroke-width: 0px; background-color: rgb(248, 249, 250); text-decoration-thickness: initial; text-decoration-style: initial; text-decoration-color: initial; float: none; display: inline !important;&quot;&gt;Dest IP, port: C, 5757&lt;/span&gt;" style="text;whiteSpace=wrap;html=1;fontSize=24;" vertex="1" parent="1">
          <mxGeometry x="1127" y="1392" width="290" height="80" as="geometry" />
        </mxCell>
        <mxCell id="AwcQBpQKS7GPVbEw_jSh-37" value="" style="endArrow=classic;html=1;rounded=0;fontSize=24;" edge="1" parent="1">
          <mxGeometry width="50" height="50" relative="1" as="geometry">
            <mxPoint x="1569" y="1362" as="sourcePoint" />
            <mxPoint x="1137" y="1102" as="targetPoint" />
          </mxGeometry>
        </mxCell>
        <mxCell id="AwcQBpQKS7GPVbEw_jSh-38" value="" style="endArrow=classic;html=1;rounded=0;fontSize=24;" edge="1" parent="1">
          <mxGeometry width="50" height="50" relative="1" as="geometry">
            <mxPoint x="1142" y="1082" as="sourcePoint" />
            <mxPoint x="1589" y="1352" as="targetPoint" />
          </mxGeometry>
        </mxCell>
        <mxCell id="AwcQBpQKS7GPVbEw_jSh-39" value="&lt;span style=&quot;color: rgb(0, 0, 0); font-family: Helvetica; font-size: 24px; font-style: normal; font-variant-ligatures: normal; font-variant-caps: normal; font-weight: 400; letter-spacing: normal; orphans: 2; text-indent: 0px; text-transform: none; widows: 2; word-spacing: 0px; -webkit-text-stroke-width: 0px; text-decoration-thickness: initial; text-decoration-style: initial; text-decoration-color: initial; text-align: center; background-color: rgb(248, 249, 250); float: none; display: inline !important;&quot;&gt;Source IP, port: D, 6428&lt;/span&gt;&lt;br style=&quot;color: rgb(0, 0, 0); font-family: Helvetica; font-size: 24px; font-style: normal; font-variant-ligatures: normal; font-variant-caps: normal; font-weight: 400; letter-spacing: normal; orphans: 2; text-indent: 0px; text-transform: none; widows: 2; word-spacing: 0px; -webkit-text-stroke-width: 0px; text-decoration-thickness: initial; text-decoration-style: initial; text-decoration-color: initial; text-align: center; background-color: rgb(248, 249, 250);&quot;&gt;&lt;span style=&quot;color: rgb(0, 0, 0); font-family: Helvetica; font-size: 24px; font-style: normal; font-variant-ligatures: normal; font-variant-caps: normal; font-weight: 400; letter-spacing: normal; orphans: 2; text-indent: 0px; text-transform: none; widows: 2; word-spacing: 0px; -webkit-text-stroke-width: 0px; text-decoration-thickness: initial; text-decoration-style: initial; text-decoration-color: initial; text-align: center; background-color: rgb(248, 249, 250); float: none; display: inline !important;&quot;&gt;Dest IP, port: A, 1397&lt;/span&gt;" style="text;whiteSpace=wrap;html=1;fontSize=24;rotation=30;" vertex="1" parent="1">
          <mxGeometry x="1142" y="1212" width="290" height="79.33" as="geometry" />
        </mxCell>
        <mxCell id="AwcQBpQKS7GPVbEw_jSh-40" value="&lt;span style=&quot;color: rgb(0, 0, 0); font-family: Helvetica; font-size: 24px; font-style: normal; font-variant-ligatures: normal; font-variant-caps: normal; font-weight: 400; letter-spacing: normal; orphans: 2; text-indent: 0px; text-transform: none; widows: 2; word-spacing: 0px; -webkit-text-stroke-width: 0px; text-decoration-thickness: initial; text-decoration-style: initial; text-decoration-color: initial; text-align: center; background-color: rgb(248, 249, 250); float: none; display: inline !important;&quot;&gt;Source IP, port: A, 1397&lt;/span&gt;&lt;br style=&quot;color: rgb(0, 0, 0); font-family: Helvetica; font-size: 24px; font-style: normal; font-variant-ligatures: normal; font-variant-caps: normal; font-weight: 400; letter-spacing: normal; orphans: 2; text-indent: 0px; text-transform: none; widows: 2; word-spacing: 0px; -webkit-text-stroke-width: 0px; text-decoration-thickness: initial; text-decoration-style: initial; text-decoration-color: initial; text-align: center; background-color: rgb(248, 249, 250);&quot;&gt;&lt;span style=&quot;color: rgb(0, 0, 0); font-family: Helvetica; font-size: 24px; font-style: normal; font-variant-ligatures: normal; font-variant-caps: normal; font-weight: 400; letter-spacing: normal; orphans: 2; text-indent: 0px; text-transform: none; widows: 2; word-spacing: 0px; -webkit-text-stroke-width: 0px; text-decoration-thickness: initial; text-decoration-style: initial; text-decoration-color: initial; text-align: center; background-color: rgb(248, 249, 250); float: none; display: inline !important;&quot;&gt;Dest IP, port: D, 6428&lt;/span&gt;" style="text;whiteSpace=wrap;html=1;fontSize=24;rotation=30;" vertex="1" parent="1">
          <mxGeometry x="1219" y="1132" width="290" height="80" as="geometry" />
        </mxCell>
        <mxCell id="AwcQBpQKS7GPVbEw_jSh-46" value="TCP connection" style="text;html=1;strokeColor=none;fillColor=none;align=center;verticalAlign=middle;whiteSpace=wrap;rounded=0;fontSize=24;" vertex="1" parent="1">
          <mxGeometry x="620" y="1012" width="280" height="57" as="geometry" />
        </mxCell>
      </root>
    </mxGraphModel>
  </diagram>
  <diagram id="yejDoy05T_WTSxbcO2Ch" name="main">
    <mxGraphModel dx="2424" dy="829" grid="1" gridSize="10" guides="1" tooltips="1" connect="1" arrows="1" fold="1" page="1" pageScale="1" pageWidth="827" pageHeight="1169" math="0" shadow="0">
      <root>
        <mxCell id="0" />
        <mxCell id="1" parent="0" />
        <mxCell id="-6Qd9hBJ-JfoRWG8CqMM-11" value="connect to server" style="rounded=0;whiteSpace=wrap;html=1;fontSize=18;" vertex="1" parent="1">
          <mxGeometry x="-350" y="300" width="120" height="60" as="geometry" />
        </mxCell>
        <mxCell id="-6Qd9hBJ-JfoRWG8CqMM-12" value="" style="endArrow=classic;html=1;rounded=0;fontSize=18;exitX=0.5;exitY=1;exitDx=0;exitDy=0;entryX=0.5;entryY=0;entryDx=0;entryDy=0;" edge="1" parent="1" source="-6Qd9hBJ-JfoRWG8CqMM-11" target="-6Qd9hBJ-JfoRWG8CqMM-31">
          <mxGeometry width="50" height="50" relative="1" as="geometry">
            <mxPoint x="-300" y="560" as="sourcePoint" />
            <mxPoint x="-290" y="400" as="targetPoint" />
          </mxGeometry>
        </mxCell>
        <mxCell id="-6Qd9hBJ-JfoRWG8CqMM-16" value="" style="endArrow=classic;html=1;rounded=0;fontSize=18;exitX=0.5;exitY=1;exitDx=0;exitDy=0;" edge="1" parent="1" source="-6Qd9hBJ-JfoRWG8CqMM-17">
          <mxGeometry width="50" height="50" relative="1" as="geometry">
            <mxPoint x="-290" y="640" as="sourcePoint" />
            <mxPoint x="-285" y="680" as="targetPoint" />
          </mxGeometry>
        </mxCell>
        <mxCell id="-6Qd9hBJ-JfoRWG8CqMM-17" value="acquire authorization" style="shape=process;whiteSpace=wrap;html=1;backgroundOutline=1;fontSize=18;" vertex="1" parent="1">
          <mxGeometry x="-360" y="550" width="150" height="70" as="geometry" />
        </mxCell>
        <mxCell id="-6Qd9hBJ-JfoRWG8CqMM-18" value="token" style="shape=parallelogram;perimeter=parallelogramPerimeter;whiteSpace=wrap;html=1;fixedSize=1;fontSize=18;" vertex="1" parent="1">
          <mxGeometry x="-340" y="680" width="120" height="60" as="geometry" />
        </mxCell>
        <mxCell id="-6Qd9hBJ-JfoRWG8CqMM-20" value="fetch uploading plan" style="shape=process;whiteSpace=wrap;html=1;backgroundOutline=1;fontSize=18;" vertex="1" parent="1">
          <mxGeometry x="-27.5" y="670" width="190" height="80" as="geometry" />
        </mxCell>
        <mxCell id="-6Qd9hBJ-JfoRWG8CqMM-21" value="file_size" style="shape=parallelogram;perimeter=parallelogramPerimeter;whiteSpace=wrap;html=1;fixedSize=1;fontSize=18;" vertex="1" parent="1">
          <mxGeometry x="-600" y="680" width="120" height="60" as="geometry" />
        </mxCell>
        <mxCell id="-6Qd9hBJ-JfoRWG8CqMM-22" value="file" style="shape=cylinder3;whiteSpace=wrap;html=1;boundedLbl=1;backgroundOutline=1;size=15;fontSize=18;" vertex="1" parent="1">
          <mxGeometry x="-660" y="400" width="60" height="80" as="geometry" />
        </mxCell>
        <mxCell id="-6Qd9hBJ-JfoRWG8CqMM-24" value="get file size" style="rounded=0;whiteSpace=wrap;html=1;fontSize=18;" vertex="1" parent="1">
          <mxGeometry x="-590" y="565" width="120" height="60" as="geometry" />
        </mxCell>
        <mxCell id="-6Qd9hBJ-JfoRWG8CqMM-25" value="" style="endArrow=classic;html=1;rounded=0;fontSize=18;exitX=0.5;exitY=1;exitDx=0;exitDy=0;entryX=0.575;entryY=0.03;entryDx=0;entryDy=0;entryPerimeter=0;" edge="1" parent="1" source="-6Qd9hBJ-JfoRWG8CqMM-24" target="-6Qd9hBJ-JfoRWG8CqMM-21">
          <mxGeometry width="50" height="50" relative="1" as="geometry">
            <mxPoint x="-530.5" y="635" as="sourcePoint" />
            <mxPoint x="-530" y="690" as="targetPoint" />
          </mxGeometry>
        </mxCell>
        <mxCell id="-6Qd9hBJ-JfoRWG8CqMM-31" value="clientSocket" style="shape=parallelogram;perimeter=parallelogramPerimeter;whiteSpace=wrap;html=1;fixedSize=1;fontSize=18;" vertex="1" parent="1">
          <mxGeometry x="-360" y="410" width="140" height="70" as="geometry" />
        </mxCell>
        <mxCell id="-6Qd9hBJ-JfoRWG8CqMM-32" value="" style="endArrow=classic;html=1;rounded=0;fontSize=18;exitX=0.5;exitY=1;exitDx=0;exitDy=0;" edge="1" parent="1" source="-6Qd9hBJ-JfoRWG8CqMM-31">
          <mxGeometry width="50" height="50" relative="1" as="geometry">
            <mxPoint x="-310" y="530" as="sourcePoint" />
            <mxPoint x="-290" y="550" as="targetPoint" />
          </mxGeometry>
        </mxCell>
        <mxCell id="-6Qd9hBJ-JfoRWG8CqMM-36" value="convert to binary data" style="rounded=0;whiteSpace=wrap;html=1;fontSize=18;" vertex="1" parent="1">
          <mxGeometry x="-770" y="565" width="130" height="60" as="geometry" />
        </mxCell>
        <mxCell id="-6Qd9hBJ-JfoRWG8CqMM-38" value="binary_data" style="shape=parallelogram;perimeter=parallelogramPerimeter;whiteSpace=wrap;html=1;fixedSize=1;fontSize=18;" vertex="1" parent="1">
          <mxGeometry x="-770" y="680" width="130" height="60" as="geometry" />
        </mxCell>
        <mxCell id="-6Qd9hBJ-JfoRWG8CqMM-39" value="" style="endArrow=classic;html=1;rounded=0;fontSize=18;exitX=0.5;exitY=1;exitDx=0;exitDy=0;entryX=0.5;entryY=0;entryDx=0;entryDy=0;" edge="1" parent="1" source="-6Qd9hBJ-JfoRWG8CqMM-36" target="-6Qd9hBJ-JfoRWG8CqMM-38">
          <mxGeometry width="50" height="50" relative="1" as="geometry">
            <mxPoint x="-740" y="670" as="sourcePoint" />
            <mxPoint x="-735" y="680" as="targetPoint" />
          </mxGeometry>
        </mxCell>
        <mxCell id="-6Qd9hBJ-JfoRWG8CqMM-40" value="ip, port" style="shape=parallelogram;perimeter=parallelogramPerimeter;whiteSpace=wrap;html=1;fixedSize=1;fontSize=18;" vertex="1" parent="1">
          <mxGeometry x="-690" y="300" width="120" height="60" as="geometry" />
        </mxCell>
        <mxCell id="-6Qd9hBJ-JfoRWG8CqMM-41" value="&lt;span style=&quot;font-size: 18px;&quot;&gt;start&lt;/span&gt;" style="strokeWidth=2;html=1;shape=mxgraph.flowchart.start_1;whiteSpace=wrap;fontSize=24;" vertex="1" parent="1">
          <mxGeometry x="-500" y="40" width="110" height="50" as="geometry" />
        </mxCell>
        <mxCell id="-6Qd9hBJ-JfoRWG8CqMM-42" value="" style="endArrow=classic;html=1;rounded=0;fontSize=18;exitX=0.5;exitY=1;exitDx=0;exitDy=0;exitPerimeter=0;entryX=0.512;entryY=0.108;entryDx=0;entryDy=0;entryPerimeter=0;edgeStyle=orthogonalEdgeStyle;" edge="1" parent="1" source="-6Qd9hBJ-JfoRWG8CqMM-41" target="-6Qd9hBJ-JfoRWG8CqMM-43">
          <mxGeometry width="50" height="50" relative="1" as="geometry">
            <mxPoint x="730" y="-47" as="sourcePoint" />
            <mxPoint x="-370" y="180" as="targetPoint" />
          </mxGeometry>
        </mxCell>
        <mxCell id="-6Qd9hBJ-JfoRWG8CqMM-43" value="Key commands, with parameters, server IP, port" style="html=1;strokeWidth=2;shape=manualInput;whiteSpace=wrap;rounded=1;size=26;arcSize=11;fontSize=18;" vertex="1" parent="1">
          <mxGeometry x="-355" y="140" width="140" height="110" as="geometry" />
        </mxCell>
        <mxCell id="-6Qd9hBJ-JfoRWG8CqMM-44" value="" style="endArrow=classic;html=1;rounded=0;fontSize=18;entryX=1;entryY=0.5;entryDx=0;entryDy=0;exitX=-0.012;exitY=0.681;exitDx=0;exitDy=0;exitPerimeter=0;" edge="1" parent="1" source="-6Qd9hBJ-JfoRWG8CqMM-43" target="-6Qd9hBJ-JfoRWG8CqMM-45">
          <mxGeometry width="50" height="50" relative="1" as="geometry">
            <mxPoint x="-360" y="210" as="sourcePoint" />
            <mxPoint x="60" y="-7" as="targetPoint" />
          </mxGeometry>
        </mxCell>
        <mxCell id="-6Qd9hBJ-JfoRWG8CqMM-45" value="_argparse()" style="rounded=0;whiteSpace=wrap;html=1;fontSize=18;" vertex="1" parent="1">
          <mxGeometry x="-690" y="180" width="120" height="60" as="geometry" />
        </mxCell>
        <mxCell id="-6Qd9hBJ-JfoRWG8CqMM-46" value="" style="endArrow=classic;html=1;rounded=0;fontSize=18;entryX=0.5;entryY=0;entryDx=0;entryDy=0;edgeStyle=orthogonalEdgeStyle;" edge="1" parent="1" source="-6Qd9hBJ-JfoRWG8CqMM-45" target="-6Qd9hBJ-JfoRWG8CqMM-40">
          <mxGeometry width="50" height="50" relative="1" as="geometry">
            <mxPoint x="-500" y="220" as="sourcePoint" />
            <mxPoint x="-280" y="170" as="targetPoint" />
          </mxGeometry>
        </mxCell>
        <mxCell id="-6Qd9hBJ-JfoRWG8CqMM-47" value="" style="endArrow=classic;html=1;rounded=0;fontSize=18;exitX=1;exitY=0.5;exitDx=0;exitDy=0;entryX=0;entryY=0.5;entryDx=0;entryDy=0;" edge="1" parent="1" source="-6Qd9hBJ-JfoRWG8CqMM-40" target="-6Qd9hBJ-JfoRWG8CqMM-11">
          <mxGeometry width="50" height="50" relative="1" as="geometry">
            <mxPoint x="-590" y="270" as="sourcePoint" />
            <mxPoint x="-280" y="130" as="targetPoint" />
          </mxGeometry>
        </mxCell>
        <mxCell id="-6Qd9hBJ-JfoRWG8CqMM-50" value="file uploading" style="shape=process;whiteSpace=wrap;html=1;backgroundOutline=1;fontSize=18;" vertex="1" parent="1">
          <mxGeometry x="-40" y="330" width="220" height="81" as="geometry" />
        </mxCell>
        <mxCell id="-6Qd9hBJ-JfoRWG8CqMM-57" value="" style="endArrow=classic;html=1;rounded=0;fontSize=18;exitX=0.5;exitY=1;exitDx=0;exitDy=0;exitPerimeter=0;entryX=0.5;entryY=0;entryDx=0;entryDy=0;edgeStyle=orthogonalEdgeStyle;" edge="1" parent="1" source="-6Qd9hBJ-JfoRWG8CqMM-22" target="-6Qd9hBJ-JfoRWG8CqMM-36">
          <mxGeometry width="50" height="50" relative="1" as="geometry">
            <mxPoint x="-770" y="490" as="sourcePoint" />
            <mxPoint x="-720" y="440" as="targetPoint" />
            <Array as="points">
              <mxPoint x="-630" y="520" />
              <mxPoint x="-705" y="520" />
            </Array>
          </mxGeometry>
        </mxCell>
        <mxCell id="-6Qd9hBJ-JfoRWG8CqMM-58" value="" style="endArrow=classic;html=1;rounded=0;fontSize=18;entryX=0.5;entryY=0;entryDx=0;entryDy=0;edgeStyle=orthogonalEdgeStyle;" edge="1" parent="1" target="-6Qd9hBJ-JfoRWG8CqMM-24">
          <mxGeometry width="50" height="50" relative="1" as="geometry">
            <mxPoint x="-630" y="480" as="sourcePoint" />
            <mxPoint x="-530" y="560" as="targetPoint" />
            <Array as="points">
              <mxPoint x="-630" y="520" />
              <mxPoint x="-530" y="520" />
            </Array>
          </mxGeometry>
        </mxCell>
        <mxCell id="-6Qd9hBJ-JfoRWG8CqMM-62" value="md5" style="shape=parallelogram;perimeter=parallelogramPerimeter;whiteSpace=wrap;html=1;fixedSize=1;fontSize=18;" vertex="1" parent="1">
          <mxGeometry x="10" y="190" width="120" height="60" as="geometry" />
        </mxCell>
        <mxCell id="-6Qd9hBJ-JfoRWG8CqMM-63" value="end" style="strokeWidth=2;html=1;shape=mxgraph.flowchart.terminator;whiteSpace=wrap;fontSize=18;" vertex="1" parent="1">
          <mxGeometry x="20" y="90" width="100" height="40" as="geometry" />
        </mxCell>
        <mxCell id="-6Qd9hBJ-JfoRWG8CqMM-73" value="key, total_blocks,&amp;nbsp; max_packet_size" style="shape=parallelogram;perimeter=parallelogramPerimeter;whiteSpace=wrap;html=1;fixedSize=1;fontSize=18;" vertex="1" parent="1">
          <mxGeometry x="-25" y="520" width="185" height="70" as="geometry" />
        </mxCell>
        <mxCell id="eoaTedmNgXWOw_aE4vAn-1" value="" style="endArrow=classic;html=1;rounded=0;fontSize=18;elbow=vertical;exitX=1;exitY=0.5;exitDx=0;exitDy=0;entryX=0;entryY=0.5;entryDx=0;entryDy=0;" edge="1" parent="1" source="-6Qd9hBJ-JfoRWG8CqMM-18" target="-6Qd9hBJ-JfoRWG8CqMM-20">
          <mxGeometry width="50" height="50" relative="1" as="geometry">
            <mxPoint x="-160" y="830" as="sourcePoint" />
            <mxPoint x="-110" y="780" as="targetPoint" />
          </mxGeometry>
        </mxCell>
        <mxCell id="eoaTedmNgXWOw_aE4vAn-2" value="" style="endArrow=classic;html=1;rounded=0;fontSize=18;elbow=vertical;exitX=1;exitY=0.5;exitDx=0;exitDy=0;entryX=0;entryY=0.5;entryDx=0;entryDy=0;edgeStyle=orthogonalEdgeStyle;" edge="1" parent="1" source="-6Qd9hBJ-JfoRWG8CqMM-31" target="-6Qd9hBJ-JfoRWG8CqMM-20">
          <mxGeometry width="50" height="50" relative="1" as="geometry">
            <mxPoint x="-130" y="510" as="sourcePoint" />
            <mxPoint x="-80" y="460" as="targetPoint" />
            <Array as="points">
              <mxPoint x="-140" y="445" />
              <mxPoint x="-140" y="710" />
            </Array>
          </mxGeometry>
        </mxCell>
        <mxCell id="eoaTedmNgXWOw_aE4vAn-3" value="" style="endArrow=classic;html=1;rounded=0;fontSize=18;elbow=vertical;exitX=0.5;exitY=1;exitDx=0;exitDy=0;edgeStyle=orthogonalEdgeStyle;" edge="1" parent="1" source="-6Qd9hBJ-JfoRWG8CqMM-21">
          <mxGeometry width="50" height="50" relative="1" as="geometry">
            <mxPoint x="-450" y="790" as="sourcePoint" />
            <mxPoint x="-30" y="710" as="targetPoint" />
            <Array as="points">
              <mxPoint x="-540" y="800" />
              <mxPoint x="-140" y="800" />
              <mxPoint x="-140" y="710" />
            </Array>
          </mxGeometry>
        </mxCell>
        <mxCell id="eoaTedmNgXWOw_aE4vAn-5" value="" style="endArrow=classic;html=1;rounded=0;fontSize=18;elbow=vertical;exitX=0.5;exitY=0;exitDx=0;exitDy=0;entryX=0.5;entryY=1;entryDx=0;entryDy=0;" edge="1" parent="1" source="-6Qd9hBJ-JfoRWG8CqMM-20" target="-6Qd9hBJ-JfoRWG8CqMM-73">
          <mxGeometry width="50" height="50" relative="1" as="geometry">
            <mxPoint x="260" y="650" as="sourcePoint" />
            <mxPoint x="310" y="600" as="targetPoint" />
          </mxGeometry>
        </mxCell>
        <mxCell id="eoaTedmNgXWOw_aE4vAn-6" value="" style="endArrow=classic;html=1;rounded=0;fontSize=18;elbow=vertical;entryX=0.5;entryY=1;entryDx=0;entryDy=0;" edge="1" parent="1" target="-6Qd9hBJ-JfoRWG8CqMM-50">
          <mxGeometry width="50" height="50" relative="1" as="geometry">
            <mxPoint x="70" y="520" as="sourcePoint" />
            <mxPoint x="110" y="460" as="targetPoint" />
          </mxGeometry>
        </mxCell>
        <mxCell id="eoaTedmNgXWOw_aE4vAn-7" value="" style="endArrow=classic;html=1;rounded=0;fontSize=18;exitX=0.5;exitY=1;exitDx=0;exitDy=0;entryX=0.5;entryY=1;entryDx=0;entryDy=0;edgeStyle=orthogonalEdgeStyle;" edge="1" parent="1" source="-6Qd9hBJ-JfoRWG8CqMM-38" target="-6Qd9hBJ-JfoRWG8CqMM-50">
          <mxGeometry width="50" height="50" relative="1" as="geometry">
            <mxPoint x="-620" y="850" as="sourcePoint" />
            <mxPoint x="-570" y="800" as="targetPoint" />
            <Array as="points">
              <mxPoint x="-705" y="840" />
              <mxPoint x="220" y="840" />
              <mxPoint x="220" y="480" />
              <mxPoint x="70" y="480" />
            </Array>
          </mxGeometry>
        </mxCell>
        <mxCell id="eoaTedmNgXWOw_aE4vAn-9" value="" style="endArrow=classic;html=1;rounded=0;fontSize=18;exitX=1;exitY=0.5;exitDx=0;exitDy=0;entryX=0.5;entryY=1;entryDx=0;entryDy=0;edgeStyle=orthogonalEdgeStyle;" edge="1" parent="1" source="-6Qd9hBJ-JfoRWG8CqMM-18" target="-6Qd9hBJ-JfoRWG8CqMM-50">
          <mxGeometry width="50" height="50" relative="1" as="geometry">
            <mxPoint x="-110" y="670" as="sourcePoint" />
            <mxPoint x="-60" y="620" as="targetPoint" />
            <Array as="points">
              <mxPoint x="-80" y="710" />
              <mxPoint x="-80" y="480" />
              <mxPoint x="70" y="480" />
            </Array>
          </mxGeometry>
        </mxCell>
        <mxCell id="eoaTedmNgXWOw_aE4vAn-11" value="" style="endArrow=classic;html=1;rounded=0;fontSize=18;exitX=1;exitY=0.5;exitDx=0;exitDy=0;entryX=0.5;entryY=1;entryDx=0;entryDy=0;" edge="1" parent="1" source="-6Qd9hBJ-JfoRWG8CqMM-31" target="-6Qd9hBJ-JfoRWG8CqMM-50">
          <mxGeometry width="50" height="50" relative="1" as="geometry">
            <mxPoint x="-90" y="370" as="sourcePoint" />
            <mxPoint x="-40" y="320" as="targetPoint" />
          </mxGeometry>
        </mxCell>
        <mxCell id="eoaTedmNgXWOw_aE4vAn-12" value="" style="endArrow=classic;html=1;rounded=0;fontSize=18;exitX=0.5;exitY=0;exitDx=0;exitDy=0;entryX=0.5;entryY=1;entryDx=0;entryDy=0;" edge="1" parent="1" source="-6Qd9hBJ-JfoRWG8CqMM-50" target="-6Qd9hBJ-JfoRWG8CqMM-62">
          <mxGeometry width="50" height="50" relative="1" as="geometry">
            <mxPoint x="130" y="300" as="sourcePoint" />
            <mxPoint x="180" y="250" as="targetPoint" />
          </mxGeometry>
        </mxCell>
        <mxCell id="eoaTedmNgXWOw_aE4vAn-13" value="" style="endArrow=classic;html=1;rounded=0;fontSize=18;exitX=0.5;exitY=0;exitDx=0;exitDy=0;entryX=0.5;entryY=1;entryDx=0;entryDy=0;entryPerimeter=0;" edge="1" parent="1" source="-6Qd9hBJ-JfoRWG8CqMM-62" target="-6Qd9hBJ-JfoRWG8CqMM-63">
          <mxGeometry width="50" height="50" relative="1" as="geometry">
            <mxPoint x="150" y="200" as="sourcePoint" />
            <mxPoint x="200" y="150" as="targetPoint" />
          </mxGeometry>
        </mxCell>
      </root>
    </mxGraphModel>
  </diagram>
  <diagram id="s8FdkKS_-ZYwBO41oHSb" name="acuqire authorization">
    <mxGraphModel dx="1298" dy="1843" grid="1" gridSize="10" guides="1" tooltips="1" connect="1" arrows="1" fold="1" page="1" pageScale="1" pageWidth="827" pageHeight="1169" math="0" shadow="0">
      <root>
        <mxCell id="0" />
        <mxCell id="1" parent="0" />
        <mxCell id="vs0AHVepLjFOD6Hri-eq-1" value="" style="endArrow=classic;html=1;rounded=0;fontSize=18;elbow=vertical;entryX=0.5;entryY=0;entryDx=0;entryDy=0;" edge="1" parent="1" source="5nA7Y5ohjkwqtgAAo1Wv-15" target="5nA7Y5ohjkwqtgAAo1Wv-17">
          <mxGeometry width="50" height="50" relative="1" as="geometry">
            <mxPoint x="169.5" y="90" as="sourcePoint" />
            <mxPoint x="170" y="150" as="targetPoint" />
          </mxGeometry>
        </mxCell>
        <mxCell id="5nA7Y5ohjkwqtgAAo1Wv-1" value="json_data" style="shape=parallelogram;perimeter=parallelogramPerimeter;whiteSpace=wrap;html=1;fixedSize=1;fontSize=18;" vertex="1" parent="1">
          <mxGeometry x="300" y="185" width="140" height="60" as="geometry" />
        </mxCell>
        <mxCell id="5nA7Y5ohjkwqtgAAo1Wv-2" value="" style="endArrow=classic;html=1;rounded=0;fontSize=18;" edge="1" parent="1" source="5nA7Y5ohjkwqtgAAo1Wv-1">
          <mxGeometry width="50" height="50" relative="1" as="geometry">
            <mxPoint x="370" y="270" as="sourcePoint" />
            <mxPoint x="370" y="290.71067811865476" as="targetPoint" />
          </mxGeometry>
        </mxCell>
        <mxCell id="5nA7Y5ohjkwqtgAAo1Wv-5" value="make packet" style="rounded=0;whiteSpace=wrap;html=1;fontSize=18;" vertex="1" parent="1">
          <mxGeometry x="310" y="290" width="120" height="60" as="geometry" />
        </mxCell>
        <mxCell id="5nA7Y5ohjkwqtgAAo1Wv-6" value="main" style="shape=process;whiteSpace=wrap;html=1;backgroundOutline=1;fontSize=18;" vertex="1" parent="1">
          <mxGeometry x="110" y="290" width="120" height="60" as="geometry" />
        </mxCell>
        <mxCell id="5nA7Y5ohjkwqtgAAo1Wv-7" value="" style="endArrow=classic;html=1;rounded=0;fontSize=18;exitX=0.5;exitY=1;exitDx=0;exitDy=0;entryX=0.571;entryY=0.02;entryDx=0;entryDy=0;entryPerimeter=0;" edge="1" parent="1" source="5nA7Y5ohjkwqtgAAo1Wv-6" target="5nA7Y5ohjkwqtgAAo1Wv-10">
          <mxGeometry width="50" height="50" relative="1" as="geometry">
            <mxPoint x="220" y="360" as="sourcePoint" />
            <mxPoint x="170" y="410" as="targetPoint" />
          </mxGeometry>
        </mxCell>
        <mxCell id="5nA7Y5ohjkwqtgAAo1Wv-8" value="" style="endArrow=classic;html=1;rounded=0;fontSize=18;exitX=0.5;exitY=1;exitDx=0;exitDy=0;" edge="1" parent="1" source="5nA7Y5ohjkwqtgAAo1Wv-5">
          <mxGeometry width="50" height="50" relative="1" as="geometry">
            <mxPoint x="380" y="460" as="sourcePoint" />
            <mxPoint x="370" y="410" as="targetPoint" />
          </mxGeometry>
        </mxCell>
        <mxCell id="5nA7Y5ohjkwqtgAAo1Wv-9" value="packet" style="shape=parallelogram;perimeter=parallelogramPerimeter;whiteSpace=wrap;html=1;fixedSize=1;fontSize=18;" vertex="1" parent="1">
          <mxGeometry x="310" y="410" width="120" height="60" as="geometry" />
        </mxCell>
        <mxCell id="5nA7Y5ohjkwqtgAAo1Wv-10" value="clientSocket" style="shape=parallelogram;perimeter=parallelogramPerimeter;whiteSpace=wrap;html=1;fixedSize=1;fontSize=18;" vertex="1" parent="1">
          <mxGeometry x="90" y="410" width="140" height="60" as="geometry" />
        </mxCell>
        <mxCell id="5nA7Y5ohjkwqtgAAo1Wv-11" value="send packet to server side" style="rounded=0;whiteSpace=wrap;html=1;fontSize=18;" vertex="1" parent="1">
          <mxGeometry x="210" y="540" width="120" height="60" as="geometry" />
        </mxCell>
        <mxCell id="5nA7Y5ohjkwqtgAAo1Wv-12" value="" style="endArrow=classic;html=1;rounded=0;fontSize=18;exitX=0.5;exitY=1;exitDx=0;exitDy=0;entryX=0.5;entryY=0;entryDx=0;entryDy=0;edgeStyle=orthogonalEdgeStyle;" edge="1" parent="1" source="5nA7Y5ohjkwqtgAAo1Wv-10" target="5nA7Y5ohjkwqtgAAo1Wv-11">
          <mxGeometry width="50" height="50" relative="1" as="geometry">
            <mxPoint x="230" y="530" as="sourcePoint" />
            <mxPoint x="280" y="480" as="targetPoint" />
          </mxGeometry>
        </mxCell>
        <mxCell id="5nA7Y5ohjkwqtgAAo1Wv-13" value="" style="endArrow=classic;html=1;rounded=0;fontSize=18;exitX=0.5;exitY=1;exitDx=0;exitDy=0;entryX=0.5;entryY=0;entryDx=0;entryDy=0;edgeStyle=orthogonalEdgeStyle;" edge="1" parent="1" source="5nA7Y5ohjkwqtgAAo1Wv-9" target="5nA7Y5ohjkwqtgAAo1Wv-11">
          <mxGeometry width="50" height="50" relative="1" as="geometry">
            <mxPoint x="390" y="550" as="sourcePoint" />
            <mxPoint x="440" y="500" as="targetPoint" />
          </mxGeometry>
        </mxCell>
        <mxCell id="5nA7Y5ohjkwqtgAAo1Wv-14" value="start" style="ellipse;whiteSpace=wrap;html=1;fontSize=18;" vertex="1" parent="1">
          <mxGeometry x="310" y="-115" width="120" height="50" as="geometry" />
        </mxCell>
        <mxCell id="5nA7Y5ohjkwqtgAAo1Wv-15" value="username,&lt;br&gt;pasword" style="shape=parallelogram;perimeter=parallelogramPerimeter;whiteSpace=wrap;html=1;fixedSize=1;fontSize=18;" vertex="1" parent="1">
          <mxGeometry x="310" y="-20" width="120" height="60" as="geometry" />
        </mxCell>
        <mxCell id="5nA7Y5ohjkwqtgAAo1Wv-16" value="" style="endArrow=classic;html=1;rounded=0;fontSize=18;exitX=0.5;exitY=1;exitDx=0;exitDy=0;entryX=0.5;entryY=0;entryDx=0;entryDy=0;" edge="1" parent="1" source="5nA7Y5ohjkwqtgAAo1Wv-14" target="5nA7Y5ohjkwqtgAAo1Wv-15">
          <mxGeometry width="50" height="50" relative="1" as="geometry">
            <mxPoint x="300" y="160" as="sourcePoint" />
            <mxPoint x="170" y="30" as="targetPoint" />
          </mxGeometry>
        </mxCell>
        <mxCell id="5nA7Y5ohjkwqtgAAo1Wv-17" value="make json_data in dictionary form" style="rounded=0;whiteSpace=wrap;html=1;fontSize=18;" vertex="1" parent="1">
          <mxGeometry x="297.5" y="80" width="145" height="65" as="geometry" />
        </mxCell>
        <mxCell id="5nA7Y5ohjkwqtgAAo1Wv-18" value="" style="endArrow=classic;html=1;rounded=0;fontSize=18;exitX=0.5;exitY=1;exitDx=0;exitDy=0;entryX=0.5;entryY=0;entryDx=0;entryDy=0;" edge="1" parent="1" source="5nA7Y5ohjkwqtgAAo1Wv-17" target="5nA7Y5ohjkwqtgAAo1Wv-1">
          <mxGeometry width="50" height="50" relative="1" as="geometry">
            <mxPoint x="260" y="180" as="sourcePoint" />
            <mxPoint x="310" y="130" as="targetPoint" />
          </mxGeometry>
        </mxCell>
        <mxCell id="4RbUdH4ijoUuBF44d2Hl-1" value="" style="endArrow=classic;html=1;rounded=0;fontSize=18;exitX=1;exitY=0.5;exitDx=0;exitDy=0;entryX=0;entryY=0.5;entryDx=0;entryDy=0;" edge="1" parent="1" source="5nA7Y5ohjkwqtgAAo1Wv-11" target="4RbUdH4ijoUuBF44d2Hl-2">
          <mxGeometry width="50" height="50" relative="1" as="geometry">
            <mxPoint x="470" y="550" as="sourcePoint" />
            <mxPoint x="540" y="570" as="targetPoint" />
          </mxGeometry>
        </mxCell>
        <mxCell id="4RbUdH4ijoUuBF44d2Hl-2" value="get tcp packet from sever side" style="rounded=0;whiteSpace=wrap;html=1;fontSize=18;" vertex="1" parent="1">
          <mxGeometry x="685" y="540" width="130" height="60" as="geometry" />
        </mxCell>
        <mxCell id="4RbUdH4ijoUuBF44d2Hl-4" value="received_json_data" style="shape=parallelogram;perimeter=parallelogramPerimeter;whiteSpace=wrap;html=1;fixedSize=1;fontSize=18;" vertex="1" parent="1">
          <mxGeometry x="650" y="405" width="200" height="65" as="geometry" />
        </mxCell>
        <mxCell id="4RbUdH4ijoUuBF44d2Hl-5" value="" style="endArrow=classic;html=1;rounded=0;fontSize=18;exitX=0.5;exitY=0;exitDx=0;exitDy=0;entryX=0.5;entryY=1;entryDx=0;entryDy=0;" edge="1" parent="1" source="4RbUdH4ijoUuBF44d2Hl-2" target="4RbUdH4ijoUuBF44d2Hl-4">
          <mxGeometry width="50" height="50" relative="1" as="geometry">
            <mxPoint x="640" y="540" as="sourcePoint" />
            <mxPoint x="690" y="490" as="targetPoint" />
          </mxGeometry>
        </mxCell>
        <mxCell id="4RbUdH4ijoUuBF44d2Hl-6" value="contain FIELD_TOKEN" style="rhombus;whiteSpace=wrap;html=1;fontSize=18;" vertex="1" parent="1">
          <mxGeometry x="665" y="270" width="170" height="90" as="geometry" />
        </mxCell>
        <mxCell id="4RbUdH4ijoUuBF44d2Hl-7" value="" style="endArrow=classic;html=1;rounded=0;fontSize=18;exitX=0.5;exitY=0;exitDx=0;exitDy=0;entryX=0.5;entryY=1;entryDx=0;entryDy=0;" edge="1" parent="1" source="4RbUdH4ijoUuBF44d2Hl-4" target="4RbUdH4ijoUuBF44d2Hl-6">
          <mxGeometry width="50" height="50" relative="1" as="geometry">
            <mxPoint x="680" y="400" as="sourcePoint" />
            <mxPoint x="730" y="350" as="targetPoint" />
          </mxGeometry>
        </mxCell>
        <mxCell id="4RbUdH4ijoUuBF44d2Hl-8" value="" style="endArrow=classic;html=1;rounded=0;fontSize=18;exitX=0;exitY=0.5;exitDx=0;exitDy=0;edgeStyle=orthogonalEdgeStyle;entryX=0.5;entryY=1;entryDx=0;entryDy=0;entryPerimeter=0;" edge="1" parent="1" source="4RbUdH4ijoUuBF44d2Hl-6" target="4RbUdH4ijoUuBF44d2Hl-10">
          <mxGeometry width="50" height="50" relative="1" as="geometry">
            <mxPoint x="510" y="330" as="sourcePoint" />
            <mxPoint x="600" y="240" as="targetPoint" />
            <Array as="points">
              <mxPoint x="520" y="315" />
            </Array>
          </mxGeometry>
        </mxCell>
        <mxCell id="4RbUdH4ijoUuBF44d2Hl-10" value="&quot;Fail to get token&quot;" style="strokeWidth=2;html=1;shape=mxgraph.flowchart.display;whiteSpace=wrap;fontSize=18;" vertex="1" parent="1">
          <mxGeometry x="460" y="170" width="120" height="70" as="geometry" />
        </mxCell>
        <mxCell id="4RbUdH4ijoUuBF44d2Hl-12" value="" style="endArrow=classic;html=1;rounded=0;fontSize=18;exitX=0.5;exitY=0;exitDx=0;exitDy=0;exitPerimeter=0;entryX=0.5;entryY=1;entryDx=0;entryDy=0;" edge="1" parent="1" source="4RbUdH4ijoUuBF44d2Hl-10" target="F0afI82ot8t4eyHYKiDZ-18">
          <mxGeometry width="50" height="50" relative="1" as="geometry">
            <mxPoint x="590" y="140" as="sourcePoint" />
            <mxPoint x="725" y="50" as="targetPoint" />
          </mxGeometry>
        </mxCell>
        <mxCell id="F0afI82ot8t4eyHYKiDZ-4" value="NO" style="text;html=1;strokeColor=none;fillColor=none;align=center;verticalAlign=middle;whiteSpace=wrap;rounded=0;fontSize=18;" vertex="1" parent="1">
          <mxGeometry x="560" y="280" width="60" height="30" as="geometry" />
        </mxCell>
        <mxCell id="F0afI82ot8t4eyHYKiDZ-5" value="" style="endArrow=classic;html=1;rounded=0;fontSize=18;exitX=1;exitY=0.5;exitDx=0;exitDy=0;entryX=0.5;entryY=1;entryDx=0;entryDy=0;edgeStyle=orthogonalEdgeStyle;" edge="1" parent="1" source="4RbUdH4ijoUuBF44d2Hl-6" target="F0afI82ot8t4eyHYKiDZ-8">
          <mxGeometry width="50" height="50" relative="1" as="geometry">
            <mxPoint x="745" y="320" as="sourcePoint" />
            <mxPoint x="795" y="270" as="targetPoint" />
          </mxGeometry>
        </mxCell>
        <mxCell id="F0afI82ot8t4eyHYKiDZ-7" value="" style="endArrow=classic;html=1;rounded=0;fontSize=18;exitX=0;exitY=0.5;exitDx=0;exitDy=0;entryX=1;entryY=0.5;entryDx=0;entryDy=0;entryPerimeter=0;" edge="1" parent="1" source="F0afI82ot8t4eyHYKiDZ-8" target="F0afI82ot8t4eyHYKiDZ-9">
          <mxGeometry width="50" height="50" relative="1" as="geometry">
            <mxPoint x="800" y="120" as="sourcePoint" />
            <mxPoint x="850" y="70" as="targetPoint" />
          </mxGeometry>
        </mxCell>
        <mxCell id="F0afI82ot8t4eyHYKiDZ-8" value="token is correct" style="rhombus;whiteSpace=wrap;html=1;fontSize=18;" vertex="1" parent="1">
          <mxGeometry x="850" y="170" width="140" height="80" as="geometry" />
        </mxCell>
        <mxCell id="F0afI82ot8t4eyHYKiDZ-9" value="&quot;Tolen is incorrect&quot;" style="strokeWidth=2;html=1;shape=mxgraph.flowchart.display;whiteSpace=wrap;fontSize=18;" vertex="1" parent="1">
          <mxGeometry x="655" y="175" width="130" height="70" as="geometry" />
        </mxCell>
        <mxCell id="F0afI82ot8t4eyHYKiDZ-10" value="YES" style="text;html=1;strokeColor=none;fillColor=none;align=center;verticalAlign=middle;whiteSpace=wrap;rounded=0;fontSize=18;" vertex="1" parent="1">
          <mxGeometry x="850" y="280" width="60" height="30" as="geometry" />
        </mxCell>
        <mxCell id="F0afI82ot8t4eyHYKiDZ-11" value="" style="endArrow=classic;html=1;rounded=0;fontSize=18;exitX=0.5;exitY=0;exitDx=0;exitDy=0;exitPerimeter=0;entryX=0.5;entryY=1;entryDx=0;entryDy=0;" edge="1" parent="1" source="F0afI82ot8t4eyHYKiDZ-9" target="F0afI82ot8t4eyHYKiDZ-18">
          <mxGeometry width="50" height="50" relative="1" as="geometry">
            <mxPoint x="670" y="130" as="sourcePoint" />
            <mxPoint x="725" y="50" as="targetPoint" />
          </mxGeometry>
        </mxCell>
        <mxCell id="F0afI82ot8t4eyHYKiDZ-15" value="" style="endArrow=classic;html=1;rounded=0;fontSize=18;exitX=0.5;exitY=0;exitDx=0;exitDy=0;entryX=0.5;entryY=1;entryDx=0;entryDy=0;edgeStyle=orthogonalEdgeStyle;" edge="1" parent="1" source="F0afI82ot8t4eyHYKiDZ-8" target="F0afI82ot8t4eyHYKiDZ-17">
          <mxGeometry width="50" height="50" relative="1" as="geometry">
            <mxPoint x="920" y="120" as="sourcePoint" />
            <mxPoint x="920" y="70" as="targetPoint" />
          </mxGeometry>
        </mxCell>
        <mxCell id="F0afI82ot8t4eyHYKiDZ-17" value="get right token" style="rounded=0;whiteSpace=wrap;html=1;fontSize=18;" vertex="1" parent="1">
          <mxGeometry x="860" y="60" width="120" height="60" as="geometry" />
        </mxCell>
        <mxCell id="F0afI82ot8t4eyHYKiDZ-18" value="main" style="shape=process;whiteSpace=wrap;html=1;backgroundOutline=1;fontSize=18;" vertex="1" parent="1">
          <mxGeometry x="660" y="-30" width="120" height="60" as="geometry" />
        </mxCell>
        <mxCell id="F0afI82ot8t4eyHYKiDZ-19" value="token" style="shape=parallelogram;perimeter=parallelogramPerimeter;whiteSpace=wrap;html=1;fixedSize=1;fontSize=18;" vertex="1" parent="1">
          <mxGeometry x="860" y="-30" width="120" height="60" as="geometry" />
        </mxCell>
        <mxCell id="F0afI82ot8t4eyHYKiDZ-20" value="" style="endArrow=classic;html=1;rounded=0;fontSize=18;exitX=0.5;exitY=0;exitDx=0;exitDy=0;" edge="1" parent="1" source="F0afI82ot8t4eyHYKiDZ-17" target="F0afI82ot8t4eyHYKiDZ-19">
          <mxGeometry width="50" height="50" relative="1" as="geometry">
            <mxPoint x="780" y="40" as="sourcePoint" />
            <mxPoint x="830" y="-10" as="targetPoint" />
          </mxGeometry>
        </mxCell>
        <mxCell id="F0afI82ot8t4eyHYKiDZ-21" value="" style="endArrow=classic;html=1;rounded=0;fontSize=18;exitX=0;exitY=0.5;exitDx=0;exitDy=0;entryX=1;entryY=0.5;entryDx=0;entryDy=0;" edge="1" parent="1" source="F0afI82ot8t4eyHYKiDZ-19" target="F0afI82ot8t4eyHYKiDZ-18">
          <mxGeometry width="50" height="50" relative="1" as="geometry">
            <mxPoint x="720" y="-130" as="sourcePoint" />
            <mxPoint x="770" y="-180" as="targetPoint" />
          </mxGeometry>
        </mxCell>
        <mxCell id="F0afI82ot8t4eyHYKiDZ-22" value="YES" style="text;html=1;strokeColor=none;fillColor=none;align=center;verticalAlign=middle;whiteSpace=wrap;rounded=0;fontSize=18;" vertex="1" parent="1">
          <mxGeometry x="920" y="120" width="60" height="30" as="geometry" />
        </mxCell>
        <mxCell id="F0afI82ot8t4eyHYKiDZ-23" value="NO" style="text;html=1;strokeColor=none;fillColor=none;align=center;verticalAlign=middle;whiteSpace=wrap;rounded=0;fontSize=18;" vertex="1" parent="1">
          <mxGeometry x="790" y="155" width="60" height="30" as="geometry" />
        </mxCell>
        <mxCell id="F0afI82ot8t4eyHYKiDZ-25" value="end" style="strokeWidth=2;html=1;shape=mxgraph.flowchart.terminator;whiteSpace=wrap;fontSize=18;" vertex="1" parent="1">
          <mxGeometry x="670" y="-110" width="100" height="40" as="geometry" />
        </mxCell>
        <mxCell id="F0afI82ot8t4eyHYKiDZ-26" value="" style="endArrow=classic;html=1;rounded=0;fontSize=18;exitX=0.5;exitY=0;exitDx=0;exitDy=0;entryX=0.5;entryY=1;entryDx=0;entryDy=0;entryPerimeter=0;" edge="1" parent="1" source="F0afI82ot8t4eyHYKiDZ-18" target="F0afI82ot8t4eyHYKiDZ-25">
          <mxGeometry width="50" height="50" relative="1" as="geometry">
            <mxPoint x="510" y="-30" as="sourcePoint" />
            <mxPoint x="560" y="-80" as="targetPoint" />
          </mxGeometry>
        </mxCell>
      </root>
    </mxGraphModel>
  </diagram>
</mxfile>
